<?xml version="1.0" standalone="no"?>
<!DOCTYPE svg PUBLIC "-//W3C//DTD SVG 20010904//EN"
 "http://www.w3.org/TR/2001/REC-SVG-20010904/DTD/svg10.dtd">
<svg version="1.0" xmlns="http://www.w3.org/2000/svg"
 width="505.000000pt" height="505.000000pt" viewBox="0 0 505.000000 505.000000"
 preserveAspectRatio="xMidYMid meet">
<metadata>
Created by potrace 1.14, written by Peter Selinger 2001-2017
</metadata>
<g transform="translate(0.000000,505.000000) scale(0.100000,-0.100000)"
fill="#000000" stroke="none">
<path d="M4204 4978 c-25 -24 -58 -61 -74 -83 -15 -22 -37 -49 -48 -61 -10
-11 -25 -30 -31 -43 -7 -12 -19 -30 -26 -39 -19 -24 -87 -116 -105 -143 -8
-13 -25 -33 -37 -46 -12 -13 -20 -23 -17 -23 5 0 -170 -238 -200 -272 -8 -9
-12 -19 -9 -22 4 -3 2 -6 -4 -6 -6 0 -14 -11 -17 -25 -4 -14 -11 -25 -16 -25
-6 0 -10 -5 -10 -11 0 -7 -16 -34 -35 -60 -19 -27 -35 -53 -35 -58 0 -6 -10
-17 -22 -25 -12 -9 -19 -16 -14 -16 5 0 1 -9 -8 -19 -17 -18 -16 -20 31 -52
26 -18 50 -35 53 -39 3 -3 21 -16 41 -28 l35 -21 17 27 c9 15 28 41 42 57 58
66 65 75 60 75 -7 0 13 25 43 52 12 12 22 28 22 35 0 7 5 13 10 13 6 0 10 4
10 10 0 9 15 30 45 64 19 21 122 161 163 222 23 34 47 68 54 75 8 8 25 30 38
49 14 19 32 42 40 50 45 47 160 200 160 214 0 5 9 19 20 31 35 38 33 105 -4
140 -62 58 -112 59 -172 3z"/>
<path d="M713 4982 c-18 -2 -33 -8 -33 -14 0 -6 -3 -9 -6 -5 -9 9 -62 -43 -72
-72 -10 -28 10 -91 28 -91 6 0 9 -3 8 -7 -4 -14 34 -77 53 -91 11 -7 19 -18
19 -24 0 -6 22 -37 48 -67 62 -72 170 -213 208 -271 16 -25 31 -47 34 -50 3
-3 32 -41 65 -85 33 -44 64 -85 70 -92 5 -6 35 -45 65 -87 30 -42 58 -76 63
-76 4 0 7 -6 7 -14 0 -8 4 -16 8 -18 4 -1 23 -22 41 -45 37 -46 40 -46 96 1
17 14 35 30 41 34 5 5 20 15 32 21 30 16 28 39 -8 81 -16 19 -30 41 -30 48 0
7 -7 15 -15 18 -8 4 -12 10 -9 15 3 5 1 9 -4 9 -5 0 -15 12 -23 28 -7 15 -30
53 -51 84 -21 31 -38 62 -38 68 0 6 -4 9 -8 6 -4 -2 -13 7 -20 22 -7 15 -30
47 -52 72 -22 24 -40 50 -40 58 0 7 -4 10 -10 7 -5 -3 -10 0 -10 8 0 7 -9 23
-20 35 -11 12 -20 25 -20 29 0 4 -16 26 -35 48 -54 62 -56 65 -48 65 4 0 3 4
-3 8 -6 4 -30 34 -54 67 -114 159 -199 259 -230 274 -8 3 -30 5 -47 3z"/>
<path d="M2409 4226 c-2 -2 -38 -6 -79 -9 -65 -5 -136 -16 -205 -32 -87 -20
-119 -29 -185 -52 -41 -14 -87 -32 -101 -39 -15 -7 -29 -10 -33 -7 -3 4 -6 1
-6 -5 0 -7 -6 -12 -14 -12 -36 0 -249 -129 -361 -218 -76 -60 -215 -197 -255
-250 -14 -19 -30 -39 -35 -45 -21 -24 -103 -143 -128 -187 -82 -143 -174 -372
-191 -477 -2 -15 -5 -28 -6 -28 -3 0 -11 -49 -25 -145 -13 -93 -13 -366 0
-455 44 -306 188 -632 382 -866 38 -45 189 -199 196 -199 3 0 21 -15 41 -34
48 -47 211 -154 321 -210 129 -66 324 -133 440 -152 17 -2 53 -10 80 -16 69
-16 436 -18 500 -2 28 7 68 15 90 19 66 10 80 12 80 14 0 3 12 6 53 15 74 16
274 97 355 143 33 18 63 33 68 33 5 0 9 5 9 10 0 6 6 10 13 10 29 0 227 158
330 263 124 127 241 293 321 457 63 130 130 332 142 430 3 19 10 53 15 75 19
69 15 443 -6 515 -2 8 -6 31 -9 50 -7 43 -12 65 -25 108 -5 17 -8 32 -6 32 9
0 -70 204 -116 296 -47 97 -150 265 -190 309 -10 11 -39 45 -65 75 -87 102
-208 208 -329 290 -41 28 -79 50 -85 50 -5 0 -10 3 -10 8 0 4 -10 12 -23 17
-12 6 -42 21 -67 34 -75 39 -79 41 -138 63 -31 12 -59 23 -62 23 -3 1 -12 4
-20 8 -20 8 -158 48 -182 52 -11 2 -27 6 -36 9 -9 3 -37 7 -62 10 -25 3 -56 8
-70 11 -29 6 -306 15 -311 11z m351 -77 c273 -49 491 -136 698 -279 182 -125
349 -299 453 -470 18 -30 36 -57 39 -60 27 -23 157 -337 174 -420 3 -14 12
-56 21 -95 42 -187 40 -472 -4 -673 -82 -376 -287 -707 -591 -955 -47 -38 -92
-72 -100 -75 -8 -3 -17 -8 -20 -12 -3 -3 -32 -22 -65 -42 -198 -118 -439 -201
-660 -226 -115 -13 -385 -7 -485 12 -87 16 -237 55 -285 75 -323 133 -499 255
-708 492 -50 57 -158 213 -199 289 -80 148 -163 392 -174 514 -2 26 -7 53 -11
60 -14 22 -11 370 4 447 7 41 15 85 17 99 23 163 135 427 253 600 57 83 154
204 175 220 4 3 38 35 75 71 119 114 272 218 440 295 88 41 183 76 183 67 0
-3 6 -1 13 5 13 11 120 40 177 48 19 3 58 9 85 15 68 13 105 14 280 12 83 -1
179 -7 215 -14z"/>
<path d="M2504 4089 c-3 -5 3 -9 14 -9 18 0 19 -6 15 -82 -2 -46 -6 -92 -8
-103 -2 -11 -4 -26 -4 -32 -1 -7 -10 -13 -21 -13 -33 0 -22 -15 13 -17 122 -9
151 -5 174 22 29 34 29 57 -1 86 -23 22 -23 25 -9 41 20 23 20 63 -1 84 -10 9
-36 18 -59 20 -23 1 -57 5 -75 7 -18 2 -35 1 -38 -4z m140 -40 c24 -34 -7 -81
-48 -73 -27 5 -27 7 -20 53 5 34 10 41 30 41 12 0 30 -10 38 -21z m-6 -105
c28 -20 30 -68 2 -87 -25 -18 -70 -10 -71 12 -2 27 3 75 8 84 7 12 37 8 61 -9z"/>
<path d="M2213 4073 c-14 -3 -23 -12 -23 -22 0 -31 -31 -111 -43 -111 -7 0
-29 17 -51 36 -28 27 -35 38 -25 45 7 4 18 5 24 2 7 -4 7 -2 0 5 -8 8 -21 8
-52 -1 -45 -13 -66 -27 -41 -27 23 0 128 -108 129 -133 0 -12 2 -31 4 -42 3
-11 -3 -26 -13 -34 -15 -12 -14 -13 13 -7 17 4 37 8 45 10 8 3 22 5 30 6 10 1
8 5 -7 12 -34 17 -43 74 -22 141 21 67 37 98 58 114 16 13 13 13 -26 6z"/>
<path d="M2813 4056 c15 -11 16 -20 7 -65 -5 -28 -14 -59 -19 -69 -5 -9 -9
-20 -9 -25 0 -4 -3 -21 -7 -37 -5 -24 -12 -30 -33 -31 -27 -1 -27 -1 6 -15 18
-8 49 -16 70 -19 30 -4 33 -3 15 5 -25 10 -27 29 -9 78 l12 34 23 -20 c14 -10
26 -29 28 -42 6 -40 37 -83 65 -91 27 -7 27 -7 10 19 -9 14 -24 47 -33 73 -14
39 -15 49 -4 53 8 3 21 16 30 30 15 23 15 28 1 58 -9 18 -27 38 -41 45 -30 13
-32 4 -6 -28 10 -13 17 -32 15 -42 -4 -27 -33 -56 -52 -52 -9 2 -21 4 -26 4
-12 1 2 71 21 99 8 13 13 25 11 27 -2 2 -24 8 -48 14 -38 8 -42 8 -27 -3z"/>
<path d="M2155 4050 c-3 -6 1 -7 9 -4 18 7 21 14 7 14 -6 0 -13 -4 -16 -10z"/>
<path d="M1767 3919 c-74 -38 -103 -110 -71 -175 11 -21 30 -46 44 -56 28 -20
97 -31 106 -17 3 5 9 7 13 4 14 -8 75 39 90 69 56 118 -65 235 -182 175z m99
-24 c31 -20 66 -89 62 -123 -1 -15 -15 -39 -30 -54 -92 -92 -238 71 -149 166
25 27 85 33 117 11z"/>
<path d="M3145 3917 c-29 -10 -38 -17 -63 -49 -46 -58 -23 -139 52 -187 35
-21 54 -27 82 -24 105 11 157 113 102 197 -20 30 -67 68 -83 66 -3 0 -6 0 -7
1 -15 6 -59 4 -83 -4z m130 -44 c14 -14 25 -33 26 -42 6 -79 -47 -151 -111
-151 -127 0 -118 188 10 223 24 6 48 -3 75 -30z"/>
<path d="M3468 3774 c10 -18 3 -39 -49 -138 l-60 -116 38 18 c21 9 63 29 93
43 37 18 56 23 58 15 1 -7 -11 -51 -27 -99 -16 -48 -26 -87 -22 -87 3 0 23 11
43 25 20 14 39 25 42 25 3 0 33 18 68 40 46 29 65 36 75 28 24 -19 13 5 -14
34 -30 31 -56 39 -28 8 17 -19 16 -20 -46 -59 -35 -23 -69 -41 -76 -41 -8 0
-2 29 18 85 16 47 29 89 29 93 0 5 -36 -9 -81 -31 -44 -21 -83 -37 -85 -34 -7
6 52 123 66 132 5 3 20 1 32 -6 13 -6 21 -10 18 -7 -69 64 -101 89 -92 72z"/>
<path d="M2396 3773 c-2 -2 -21 -6 -42 -8 -206 -23 -384 -89 -563 -210 -139
-93 -264 -218 -357 -355 -62 -92 -148 -280 -160 -350 -3 -14 -9 -38 -14 -55
-5 -16 -12 -49 -15 -71 -3 -23 -8 -59 -12 -80 -7 -50 -11 -266 -4 -279 3 -5 6
-14 6 -20 1 -5 4 -30 9 -55 4 -25 8 -52 10 -60 1 -8 5 -24 9 -35 3 -11 8 -32
11 -46 12 -73 140 -337 187 -388 11 -11 19 -23 19 -26 0 -13 150 -169 216
-225 36 -30 150 -110 158 -110 3 0 27 -13 53 -28 91 -54 248 -107 390 -134
149 -27 396 -13 553 33 25 7 47 13 50 14 71 16 321 144 360 185 3 3 27 23 55
45 141 113 262 267 345 439 23 49 43 94 44 100 1 6 4 16 7 21 4 6 10 24 14 40
5 17 9 35 11 40 39 127 56 331 40 465 -17 141 -22 167 -48 250 -23 76 -24 79
-76 190 -37 79 -110 190 -172 264 -83 98 -220 211 -345 284 -72 42 -228 108
-277 117 -15 3 -37 9 -50 14 -13 5 -48 12 -78 16 -30 4 -64 9 -75 12 -26 6
-254 11 -259 6z m54 -46 c0 -10 -10 -12 -42 -8 -46 7 -88 -6 -88 -26 0 -7 -4
-13 -10 -13 -5 0 -10 -4 -10 -10 0 -5 9 -10 21 -10 22 0 52 -24 42 -34 -4 -3
1 -6 10 -6 21 0 22 14 1 34 -14 15 -14 16 1 16 15 0 15 1 -1 17 -10 11 -13 18
-6 21 7 2 23 -9 36 -25 l24 -28 -5 29 c-4 19 -2 27 5 23 14 -9 29 -57 27 -84
-2 -27 23 -39 39 -19 13 17 65 26 66 11 0 -5 -8 -11 -20 -13 -11 -2 -20 -8
-20 -14 0 -6 9 -8 20 -5 11 3 23 1 26 -5 9 -15 -17 -29 -41 -22 -14 4 -11 -1
9 -14 16 -11 35 -18 42 -15 14 5 16 53 2 53 -5 0 -6 18 -3 39 4 34 2 38 -14
34 -14 -4 -18 2 -19 32 -1 20 2 34 6 32 4 -3 39 -8 78 -11 39 -4 81 -9 93 -11
11 -3 31 -7 44 -10 48 -10 112 -28 119 -34 4 -3 -25 -6 -65 -7 -101 0 -207
-14 -207 -26 0 -7 14 -8 43 -2 23 4 101 8 172 7 115 0 137 -2 190 -24 89 -37
142 -75 163 -116 18 -34 18 -40 5 -72 -9 -20 -16 -52 -18 -71 -2 -34 -4 -35
-71 -56 -38 -12 -87 -25 -109 -28 -22 -4 -56 -11 -75 -16 -46 -12 -100 -21
-158 -25 -26 -1 -72 -6 -102 -9 -88 -11 -136 -15 -319 -31 -90 -8 -48 -14 70
-10 163 6 235 11 250 21 9 5 10 2 6 -12 -7 -19 -7 -19 7 0 8 10 22 16 30 13 8
-3 17 -3 20 1 12 11 36 10 36 -1 0 -8 3 -8 8 -2 4 6 14 11 22 12 8 2 53 10
100 18 47 9 101 18 120 21 19 3 69 14 110 26 41 11 88 21 103 21 35 0 81 -33
85 -61 4 -27 -65 -79 -110 -82 -4 -1 -26 -7 -49 -16 -23 -8 -44 -12 -47 -9 -2
2 -13 0 -23 -5 -12 -7 -20 -7 -24 0 -5 8 -12 7 -22 -2 -18 -15 -404 -21 -495
-7 -29 4 -73 10 -98 12 -25 3 -90 15 -145 26 -55 11 -120 23 -145 26 -55 8
-206 8 -231 0 -12 -4 -23 2 -35 20 -17 26 -81 65 -106 65 -7 0 -26 11 -42 23
-62 50 -24 128 81 167 87 33 221 58 347 65 17 1 32 7 34 15 4 10 -7 11 -49 6
-30 -4 -70 -10 -89 -12 -93 -11 -154 -22 -220 -39 -30 -8 -56 -12 -58 -10 -7
6 129 90 209 128 78 38 207 83 250 89 14 2 38 12 54 22 51 34 165 50 165 23z
m61 -22 c1 -17 -18 -17 -25 0 -4 11 -1 15 10 13 8 -2 15 -7 15 -13z m-11 -60
c0 -8 -4 -15 -10 -15 -5 0 -7 7 -4 15 4 8 8 15 10 15 2 0 4 -7 4 -15z m781
-212 c138 -115 284 -307 330 -435 7 -21 17 -38 22 -38 4 0 6 -4 2 -9 -3 -5 -1
-12 5 -16 5 -3 10 -17 10 -30 0 -13 4 -26 9 -29 7 -4 24 -72 37 -141 1 -5 3
-12 4 -15 4 -10 21 -181 21 -220 1 -42 -12 -164 -24 -240 -2 -8 -9 -25 -15
-37 -9 -15 -9 -23 -2 -23 7 0 7 -7 -1 -22 -7 -13 -12 -25 -12 -28 0 -3 -4 -16
-9 -30 -5 -14 -11 -33 -14 -44 -10 -54 -129 -261 -197 -344 -124 -152 -339
-306 -512 -367 -27 -9 -59 -21 -70 -25 -22 -9 -117 -32 -150 -36 -11 -1 -20
-3 -20 -4 0 -4 -142 -13 -195 -13 -98 -1 -253 18 -282 34 -11 6 -22 8 -25 5
-3 -3 -24 2 -47 11 -230 86 -351 159 -490 298 -50 49 -98 99 -106 110 -8 11
-27 36 -42 56 -159 213 -245 541 -214 824 8 77 47 248 58 256 5 3 8 10 7 15
-1 5 0 12 1 17 1 4 3 10 5 15 24 87 145 284 234 382 l51 55 0 -32 c0 -43 31
-76 110 -117 36 -18 65 -37 65 -42 1 -32 17 -36 129 -29 61 4 116 7 121 7 63
-6 115 -13 135 -19 14 -3 34 -8 45 -10 11 -2 36 -8 55 -13 19 -5 53 -11 75
-15 23 -3 51 -7 64 -10 86 -16 458 -24 559 -11 36 5 42 3 42 -12 0 -10 3 -22
7 -26 25 -25 36 -194 20 -309 -3 -15 0 -30 4 -33 5 -3 9 5 10 18 1 13 3 37 5
53 9 59 13 229 6 235 -10 6 -42 73 -38 78 2 1 12 4 22 6 70 15 121 29 152 42
26 11 38 12 40 4 3 -7 24 -41 48 -77 24 -36 44 -67 44 -69 0 -2 13 -26 30 -54
16 -27 27 -50 24 -50 -4 0 -1 -6 5 -14 24 -29 47 -140 33 -160 -4 -6 -9 -24
-11 -41 -2 -16 -6 -32 -10 -35 -3 -3 -7 -14 -7 -25 -2 -26 -9 -59 -25 -115
-15 -54 -17 -67 -20 -100 -2 -46 1 -153 5 -149 2 2 7 41 10 86 4 45 8 88 11
95 2 7 6 29 9 48 5 32 15 81 46 216 23 105 5 165 -97 322 -41 63 -76 119 -79
126 -3 8 8 27 25 43 21 22 28 36 24 52 -7 27 -55 64 -104 81 -39 14 -40 15
-20 73 7 21 11 49 8 63 -6 32 2 30 54 -13z"/>
<path d="M2275 3650 c-3 -5 1 -10 10 -10 9 0 13 5 10 10 -3 6 -8 10 -10 10 -2
0 -7 -4 -10 -10z"/>
<path d="M2238 3639 c-20 -11 -24 -29 -6 -29 6 0 8 3 5 7 -4 3 1 12 11 19 20
16 14 18 -10 3z"/>
<path d="M2315 3629 c-9 -14 -2 -20 14 -10 8 6 9 11 3 15 -6 3 -14 1 -17 -5z"/>
<path d="M2247 3599 c-4 -15 -2 -15 24 -2 35 18 36 19 5 19 -15 0 -27 -7 -29
-17z"/>
<path d="M2361 3588 c-33 -36 -36 -43 -21 -53 6 -3 10 -2 10 3 0 4 8 17 18 28
36 40 44 54 34 54 -6 0 -25 -15 -41 -32z"/>
<path d="M2421 3591 c-10 -6 -9 -12 4 -24 9 -9 21 -30 26 -47 6 -16 14 -28 19
-25 10 6 55 -43 47 -52 -4 -4 -13 -1 -19 5 -20 20 -28 13 -22 -20 5 -30 4 -31
-7 -13 -7 11 -16 38 -19 59 -3 22 -11 41 -19 44 -9 3 -11 -2 -6 -17 5 -15 3
-19 -8 -16 -17 7 -51 -105 -37 -119 6 -6 12 -3 15 6 4 10 14 14 26 11 10 -3
19 0 19 6 0 6 -4 11 -10 11 -5 0 -9 10 -9 23 1 15 3 17 6 5 5 -19 48 -50 57
-41 3 4 6 14 6 24 0 15 5 17 31 12 31 -6 32 -5 25 20 -5 23 -3 27 14 27 11 0
20 7 20 15 0 22 -4 30 -14 27 -4 -1 -22 2 -40 8 -17 5 -35 10 -41 11 -18 1
-46 32 -41 46 7 16 -6 24 -23 14z"/>
<path d="M2270 3574 c-29 -16 -54 -18 -45 -4 3 6 2 10 -3 10 -6 0 -12 -7 -16
-15 -3 -8 -2 -14 2 -14 25 4 29 -4 27 -46 -3 -39 -1 -45 16 -45 14 0 19 -7 19
-30 0 -20 5 -30 15 -30 8 0 15 5 15 10 0 6 5 10 10 10 6 0 10 -8 10 -19 0 -10
7 -24 15 -31 13 -10 15 -9 15 9 0 11 4 21 8 21 5 0 9 12 10 28 0 15 7 46 15
69 24 71 1 75 -29 5 -16 -34 -32 -62 -36 -62 -10 0 -10 14 -1 24 4 3 7 15 8
26 2 20 2 20 -20 0 -37 -35 -50 -20 -15 20 27 31 14 47 -16 19 -13 -12 -24
-17 -24 -11 0 6 14 21 30 34 46 34 39 50 -10 22z"/>
<path d="M1679 3093 c-132 -176 -154 -235 -144 -376 6 -91 10 -121 20 -168 9
-38 9 -199 0 -237 -26 -122 -29 -192 -11 -235 43 -104 121 -157 230 -157 68 0
96 10 130 45 33 35 81 118 111 190 43 105 43 105 81 31 44 -88 62 -156 68
-251 9 -158 37 -281 78 -352 25 -42 29 -42 17 0 -18 58 -31 264 -18 289 6 10
5 19 -1 23 -6 4 -8 11 -4 16 3 6 8 25 11 42 3 18 10 38 16 46 7 9 8 12 1 8
-18 -10 -74 32 -89 67 -20 47 -13 175 12 236 6 14 14 43 17 65 6 35 3 46 -23
80 -192 253 -234 324 -235 399 -1 54 0 58 34 184 26 96 26 97 0 98 -23 1 -44
-37 -56 -101 -9 -50 -22 -43 -30 15 -6 43 -10 50 -29 50 -12 0 -42 -15 -66
-33 -24 -18 -69 -50 -99 -70 -30 -19 -63 -50 -73 -67 -27 -45 -31 -170 -10
-310 22 -147 22 -226 0 -280 -3 -8 -14 -39 -23 -68 -22 -70 -34 -74 -26 -10
11 90 4 488 -9 488 -6 0 -3 53 5 103 9 54 98 209 146 252 11 10 20 22 20 27 0
19 -18 5 -51 -39z"/>
<path d="M3215 2935 c15 -97 -2 -388 -30 -536 -12 -63 -16 -113 -9 -106 5 5 9
12 10 15 0 4 13 45 27 92 15 47 34 114 41 150 17 83 12 247 -9 325 -9 33 -18
68 -20 79 -9 43 -17 27 -10 -19z"/>
<path d="M2124 2907 c-35 -11 -73 -44 -70 -60 9 -52 79 -96 154 -97 53 0 103
24 98 48 -7 35 -25 68 -53 95 -32 29 -68 33 -129 14z m56 -27 c0 -5 -7 -10
-15 -10 -8 0 -15 5 -15 10 0 6 7 10 15 10 8 0 15 -4 15 -10z m-1 -41 c30 17
47 4 25 -20 -9 -11 -26 -17 -38 -14 -11 2 -24 4 -28 4 -13 2 -29 41 -22 53 4
7 13 3 24 -12 14 -19 20 -21 39 -11z m71 -13 c0 -17 -26 -39 -40 -34 -6 2 -4
12 5 26 18 25 35 29 35 8z"/>
<path d="M2733 2869 c-28 -11 -43 -25 -43 -36 0 -29 38 -83 65 -93 31 -12 115
-4 129 11 8 9 8 10 -1 5 -26 -14 -21 14 6 33 36 26 34 50 -5 73 -45 26 -102
29 -151 7z m57 -38 c0 -26 26 -46 43 -33 7 6 18 7 25 3 16 -10 -15 -39 -40
-38 -31 1 -65 55 -51 80 8 14 23 7 23 -12z m80 10 c0 -12 -20 -25 -27 -18 -7
7 6 27 18 27 5 0 9 -4 9 -9z"/>
<path d="M3067 2628 c-3 -29 -8 -64 -11 -78 -7 -34 -39 -100 -48 -100 -5 0 -8
-5 -8 -10 0 -6 -10 -21 -22 -34 -40 -41 -59 -67 -106 -145 -26 -42 -51 -79
-56 -82 -5 -4 -6 -11 -3 -16 4 -6 2 -24 -3 -42 -5 -17 -5 -31 -1 -31 7 0 6
-62 -2 -128 -3 -24 -22 -51 -72 -102 -38 -38 -72 -67 -76 -64 -12 7 3 47 31
84 36 47 46 68 55 115 4 22 12 46 18 54 14 17 5 13 -51 -26 -21 -14 -45 -21
-63 -19 -16 2 -32 0 -34 -4 -3 -5 7 -7 21 -5 22 2 25 0 19 -19 -4 -11 -8 -100
-9 -196 l-1 -175 -35 -50 c-43 -62 -53 -73 -81 -83 -12 -5 -18 -11 -12 -15 16
-10 82 51 113 107 25 43 30 62 30 121 l0 70 62 55 c85 76 122 116 171 182 l42
57 20 -24 c11 -13 33 -40 48 -59 96 -123 296 -96 375 49 25 47 36 113 21 136
-6 9 -9 -1 -9 -29 0 -101 -76 -182 -197 -210 -24 -5 -43 -6 -43 -2 0 3 -12 5
-27 3 -36 -5 -81 24 -115 73 -34 49 -39 91 -20 163 8 31 15 61 16 66 1 6 4 15
8 20 5 9 9 27 24 108 2 10 6 26 8 35 3 9 8 42 10 72 3 30 7 62 10 70 3 8 8 33
10 55 3 22 8 55 10 73 3 17 1 32 -3 32 -5 0 -11 -24 -14 -52z"/>
<path d="M2332 2373 c-28 -6 -62 -58 -62 -96 0 -62 80 -166 129 -168 40 -1
145 -1 156 0 6 1 15 9 22 19 10 17 7 19 -29 18 -23 -1 -43 4 -45 11 -5 13 16
21 67 25 28 2 40 10 57 38 60 94 -13 157 -181 158 -50 0 -101 -2 -114 -5z"/>
<path d="M2448 1920 c-2 -66 0 -120 5 -120 7 0 11 99 9 188 -1 24 2 41 7 37 5
-3 12 -1 16 5 3 5 -3 10 -14 10 -19 0 -20 -8 -23 -120z"/>
<path d="M2510 2030 c0 -6 7 -10 15 -10 8 0 15 2 15 4 0 2 -7 6 -15 10 -8 3
-15 1 -15 -4z"/>
<path d="M2562 2015 c9 -10 21 -16 28 -13 7 2 -1 10 -16 17 -27 12 -28 11 -12
-4z"/>
<path d="M2030 1806 c0 -2 8 -10 18 -17 15 -13 16 -12 3 4 -13 16 -21 21 -21
13z"/>
<path d="M1725 1735 c0 -65 9 -81 36 -64 10 6 10 9 2 9 -9 0 -13 19 -13 60 0
41 -4 60 -12 60 -9 0 -13 -20 -13 -65z"/>
<path d="M1843 1793 c-22 -8 -15 -31 19 -62 28 -26 30 -31 17 -47 -13 -16 -12
-16 9 -5 30 16 28 36 -9 63 -19 15 -29 29 -26 40 3 10 4 18 4 17 -1 0 -8 -3
-14 -6z"/>
<path d="M1890 1790 c0 -5 5 -10 10 -10 6 0 10 5 10 10 0 6 -4 10 -10 10 -5 0
-10 -4 -10 -10z"/>
<path d="M1975 1732 c0 -56 3 -68 15 -65 22 6 22 133 0 133 -12 0 -15 -14 -15
-68z"/>
<path d="M2975 1759 c4 -13 0 -28 -12 -42 -15 -19 -14 -19 9 2 22 19 25 28 17
42 -13 25 -22 24 -14 -2z"/>
<path d="M3032 1760 c-25 -24 -25 -21 -12 -54 5 -14 15 -26 22 -26 9 0 9 3 0
12 -17 17 -15 48 5 70 22 24 12 23 -15 -2z"/>
<path d="M3163 1767 c4 -10 2 -27 -3 -38 -7 -13 -7 -19 -1 -19 17 0 25 50 11
63 -10 10 -12 8 -7 -6z"/>
<path d="M3077 1736 c4 -27 2 -41 -8 -47 -9 -6 -10 -9 -2 -9 27 0 39 48 18 76
-13 17 -14 15 -8 -20z"/>
<path d="M3240 1760 c0 -5 5 -10 10 -10 6 0 10 5 10 10 0 6 -4 10 -10 10 -5 0
-10 -4 -10 -10z"/>
<path d="M1786 1752 c-2 -4 -1 -14 4 -22 7 -11 9 -9 7 8 -1 24 -3 26 -11 14z"/>
<path d="M3117 1745 c-4 -8 -3 -16 1 -19 4 -3 9 4 9 15 2 23 -3 25 -10 4z"/>
<path d="M2925 1741 c-3 -5 -1 -12 5 -16 5 -3 10 1 10 9 0 18 -6 21 -15 7z"/>
<path d="M3237 1701 c-3 -11 1 -22 8 -25 8 -3 12 4 11 20 -1 29 -12 32 -19 5z"/>
<path d="M2958 1692 c-16 -2 -28 -7 -28 -12 0 -5 12 -6 27 -4 47 9 47 22 1 16z"/>
<path d="M3124 1689 c-6 -10 -7 -10 24 -13 32 -4 37 11 7 17 -14 2 -28 0 -31
-4z"/>
<path d="M1825 1680 c3 -5 14 -10 23 -10 15 0 15 2 2 10 -20 13 -33 13 -25 0z"/>
<path d="M2070 1680 c0 -5 5 -10 10 -10 6 0 10 5 10 10 0 6 -4 10 -10 10 -5 0
-10 -4 -10 -10z"/>
<path d="M2398 1453 c7 -3 16 -2 19 1 4 3 -2 6 -13 5 -11 0 -14 -3 -6 -6z"/>
<path d="M1425 3682 c-58 -46 -67 -57 -37 -48 20 7 57 -28 125 -118 36 -47 37
-50 20 -69 -17 -19 -17 -20 2 -9 30 16 104 85 77 72 -20 -10 -27 -7 -59 26
-31 33 -33 38 -18 46 9 6 33 7 53 4 95 -17 107 -17 131 3 l25 19 -32 -4 c-17
-2 -47 3 -66 11 -20 9 -36 13 -36 10 0 -3 -9 -1 -20 5 -11 6 -18 15 -15 20 11
17 -7 59 -28 67 -44 15 -68 8 -122 -35z m83 7 c37 -13 47 -37 31 -73 -17 -38
-22 -36 -76 27 -20 24 -21 28 -7 42 18 18 14 18 52 4z"/>
<path d="M1289 3546 c-9 -11 -36 -45 -60 -75 -31 -38 -37 -50 -21 -42 24 13
32 10 87 -34 83 -67 104 -91 98 -116 -5 -20 -2 -19 21 10 14 19 29 37 34 40 4
3 19 22 34 42 26 35 26 37 9 53 -20 18 -41 22 -23 4 18 -18 15 -30 -13 -61
l-26 -27 -39 31 c-35 28 -37 34 -28 55 11 24 20 28 48 24 10 -1 7 6 -9 24 -27
29 -36 33 -28 12 3 -8 -5 -27 -18 -42 l-24 -28 -35 33 -35 34 22 29 c16 21 28
28 44 25 30 -5 30 7 0 20 -18 9 -25 7 -38 -11z"/>
<path d="M3796 3429 c5 -33 4 -35 -79 -86 -46 -29 -89 -53 -95 -53 -6 0 -16 8
-21 18 -6 9 -11 12 -11 5 0 -7 12 -29 26 -50 30 -44 41 -56 26 -28 -14 27 -2
41 81 93 l69 42 -6 -40 c-3 -23 -8 -45 -11 -51 -4 -5 -8 -17 -10 -26 -2 -10
-13 -47 -24 -83 -11 -36 -21 -69 -21 -73 0 -5 17 1 38 14 20 12 46 27 57 33
11 6 40 24 64 40 36 23 48 26 63 17 22 -14 24 2 3 23 -8 8 -15 19 -15 25 0 5
-5 13 -12 17 -8 5 -9 2 -5 -9 7 -18 -38 -67 -60 -67 -7 0 -13 -3 -13 -7 0 -8
-48 -33 -63 -33 -4 0 -5 6 0 13 4 6 8 17 10 22 7 35 45 161 53 175 7 13 3 28
-16 56 -15 22 -28 41 -30 43 -2 2 -1 -12 2 -30z"/>
<path d="M1102 3288 c-7 -7 -12 -16 -12 -20 0 -5 -11 -27 -25 -49 l-26 -40 26
17 c24 16 27 15 86 -20 33 -20 63 -36 65 -36 3 0 18 -9 33 -21 20 -15 27 -27
24 -42 -3 -12 18 18 45 66 48 84 56 117 27 117 -7 0 -16 6 -18 13 -4 9 -6 9
-6 0 -1 -7 5 -18 13 -25 12 -11 11 -19 -6 -51 -10 -21 -25 -40 -32 -43 -7 -3
-39 10 -72 29 -106 60 -116 68 -111 94 5 27 5 27 -11 11z"/>
<path d="M922 2786 c-37 -38 -35 -66 5 -66 24 0 53 -20 53 -38 0 -16 -37 -43
-52 -37 -8 3 -20 0 -27 -8 -13 -17 -5 -47 13 -47 7 0 19 -11 26 -25 10 -19 17
-22 31 -14 11 5 19 20 19 32 0 12 8 30 18 38 16 14 21 14 38 2 18 -14 20 -18
23 -55 1 -12 9 -18 26 -18 14 0 25 4 25 10 0 5 12 21 27 34 31 29 24 45 -21
50 -15 2 -33 12 -41 22 -12 17 -11 21 5 37 11 9 28 17 38 17 11 0 25 7 32 15
11 13 7 21 -21 50 -19 19 -39 35 -46 35 -14 0 -35 -35 -26 -44 8 -8 -26 -46
-42 -46 -13 0 -32 34 -37 65 -5 31 -30 28 -66 -9z"/>
<path d="M3872 2765 c-12 -14 -26 -25 -32 -25 -18 0 -11 -39 9 -49 10 -6 21
-8 24 -5 3 3 16 -3 28 -15 22 -20 22 -21 4 -41 -10 -11 -23 -19 -29 -17 -15 6
-46 -11 -46 -24 0 -5 15 -25 33 -44 35 -36 58 -35 64 5 3 23 25 50 41 50 16 0
43 -37 37 -52 -3 -8 0 -20 8 -27 12 -9 22 -5 51 21 50 44 46 79 -8 69 -5 -1
-17 6 -27 15 -17 15 -17 18 -2 41 9 13 22 22 28 19 19 -7 55 22 49 39 -3 8
-14 17 -25 20 -10 4 -19 13 -19 21 0 8 -7 17 -15 20 -21 8 -47 -15 -40 -36 3
-10 -5 -25 -19 -39 l-24 -22 -21 27 c-11 14 -18 31 -15 36 6 9 -13 38 -25 38
-4 0 -17 -11 -29 -25z"/>
<path d="M3515 1601 c-3 -11 -12 -22 -20 -25 -23 -9 -18 -21 10 -22 38 -3 168
-111 162 -135 -3 -11 -4 -19 -2 -19 2 0 31 36 64 80 l60 80 -21 25 c-12 14
-23 25 -24 25 -1 0 -1 -22 1 -50 2 -27 -1 -50 -5 -50 -5 0 -12 -9 -15 -20 -9
-29 -29 -25 -88 19 -74 55 -109 90 -102 101 3 6 2 10 -4 10 -5 0 -12 -9 -16
-19z"/>
<path d="M1557 1562 c5 -21 -127 -152 -153 -152 -12 0 -11 -6 8 -29 25 -32 41
-40 32 -17 -11 28 137 162 165 151 9 -4 0 10 -18 29 -40 42 -41 42 -34 18z"/>
<path d="M1626 1474 c5 -25 -3 -41 -51 -103 -45 -57 -62 -72 -78 -67 -11 3
-16 2 -11 -2 5 -4 22 -18 38 -32 24 -21 27 -22 18 -5 -11 21 3 57 38 98 11 12
26 31 34 42 17 22 16 32 20 -137 0 -42 4 -79 7 -83 4 -3 37 30 74 75 38 44 74
80 80 80 27 0 37 -28 29 -82 -4 -29 -8 -60 -9 -68 -1 -8 -5 -39 -9 -67 -4 -29
-5 -53 -1 -53 12 0 32 25 32 40 3 70 21 150 39 170 12 14 4 22 -56 62 -47 30
-66 39 -59 26 11 -20 1 -42 -38 -83 -10 -11 -26 -31 -36 -45 -17 -24 -17 -23
-18 60 -1 47 -1 101 -1 122 0 25 -7 43 -24 59 l-24 23 6 -30z"/>
<path d="M3392 1440 c6 -18 13 -27 17 -22 4 6 23 1 49 -12 l43 -22 -25 -23
c-13 -13 -29 -20 -35 -16 -15 9 -14 -1 4 -35 8 -16 19 -45 23 -64 l7 -35 23
24 c21 22 21 24 4 20 -14 -2 -24 6 -36 32 l-17 35 33 28 c33 29 33 29 63 11
16 -10 29 -25 29 -34 -1 -10 -1 -17 0 -17 1 0 19 15 39 34 32 29 33 33 13 29
-14 -3 -57 12 -112 40 -49 24 -99 47 -111 51 -21 7 -22 6 -11 -24z"/>
<path d="M3290 1377 c-34 -22 -34 -22 -10 -25 18 -2 36 -19 63 -61 20 -32 37
-60 37 -63 0 -3 -18 1 -41 8 -22 8 -48 16 -57 17 -9 2 -43 11 -74 21 -57 17
-58 17 -80 -5 -13 -12 -18 -19 -11 -15 22 12 58 -16 101 -80 45 -69 49 -83 30
-103 -7 -7 4 -3 25 9 20 12 37 26 37 32 0 5 -5 6 -11 3 -5 -4 -20 1 -31 12
-28 25 -81 103 -75 110 3 3 36 -4 74 -16 37 -12 85 -26 106 -33 20 -6 39 -9
42 -6 3 2 -20 44 -51 93 -46 74 -54 93 -45 107 14 22 13 22 -29 -5z"/>
<path d="M3410 1395 c0 -5 5 -17 10 -25 5 -8 10 -10 10 -5 0 6 -5 17 -10 25
-5 8 -10 11 -10 5z"/>
<path d="M1964 1245 c6 -16 -12 -37 -77 -93 -27 -23 -43 -42 -38 -42 6 0 19 8
29 18 44 43 105 87 126 92 22 5 21 6 -11 22 -26 12 -33 13 -29 3z"/>
<path d="M3010 1223 c-49 -20 -74 -58 -75 -113 0 -154 204 -170 230 -19 16 89
-74 165 -155 132z m60 -16 c69 -54 86 -185 27 -201 -43 -11 -61 -6 -94 30 -33
36 -36 48 -35 114 1 56 61 90 102 57z"/>
<path d="M2043 1206 c10 -24 -62 -196 -81 -196 -17 0 10 -17 52 -33 15 -6 16
-5 8 5 -8 10 -5 28 9 68 11 30 21 60 23 65 12 39 28 66 42 72 14 5 13 8 -7 19
-32 18 -52 17 -46 0z"/>
<path d="M2133 1182 c-6 -4 -14 -18 -18 -32 -7 -24 -7 -24 12 -7 11 9 29 17
41 17 12 0 22 5 22 12 0 6 -3 8 -6 5 -4 -3 -14 -2 -23 3 -10 5 -22 6 -28 2z"/>
<path d="M2867 1173 c-4 -3 -19 -8 -33 -9 -31 -3 -58 -24 -31 -24 10 0 20 -13
26 -37 39 -149 40 -157 29 -171 -9 -11 -6 -12 18 -6 35 8 65 23 47 24 -14 0
-32 29 -39 63 -9 39 -12 52 -14 52 -9 0 -8 91 1 101 12 14 8 20 -4 7z"/>
<path d="M2216 1112 c-14 -101 -30 -150 -53 -168 -15 -11 -15 -14 -3 -14 20
-2 43 -7 71 -15 22 -7 23 -6 5 7 -14 11 -17 23 -13 54 3 22 10 51 16 66 5 14
8 28 5 30 -2 3 3 21 11 41 19 45 19 42 -9 45 -21 1 -24 -4 -30 -46z"/>
<path d="M2284 1138 c-4 -7 -3 -8 5 -4 7 5 23 -5 41 -23 15 -18 31 -28 33 -24
8 14 -13 55 -25 50 -7 -2 -21 0 -30 4 -11 6 -19 5 -24 -3z"/>
<path d="M2758 1145 c-2 -2 -18 -5 -36 -7 -42 -3 -41 -15 0 -16 18 0 38 -8 44
-16 16 -23 22 -20 16 9 -4 25 -15 39 -24 30z"/>
<path d="M2667 1134 c-3 -3 -31 -7 -62 -9 -63 -3 -68 -6 -70 -40 l-1 -25 21
25 c24 30 68 41 84 21 7 -8 11 -18 9 -22 -1 -5 2 -44 6 -87 7 -70 6 -80 -11
-93 -16 -13 -14 -14 22 -10 22 3 49 5 60 5 18 1 17 3 -5 14 -14 7 -25 19 -26
27 0 8 -5 49 -10 90 -5 41 -8 83 -6 93 2 18 -1 21 -11 11z"/>
<path d="M2432 1105 c-6 -14 -8 -25 -3 -25 9 0 31 -53 31 -76 0 -7 -8 -10 -20
-7 -11 3 -20 1 -20 -4 0 -6 11 -9 24 -8 20 3 26 -3 34 -35 6 -27 6 -42 -1 -49
-6 -6 -7 -11 -1 -12 89 -8 89 -8 68 3 -17 8 -29 37 -54 124 -18 63 -36 114
-40 114 -4 0 -12 -11 -18 -25z"/>
<path d="M2405 1059 c-4 -6 -5 -12 -2 -15 2 -3 7 2 10 11 7 17 1 20 -8 4z"/>
<path d="M2366 970 c-17 -37 -33 -60 -43 -60 -24 0 -10 -10 21 -16 23 -4 26
-2 21 18 -6 27 16 74 33 71 7 -2 12 2 12 7 0 6 -4 10 -10 10 -5 0 -7 7 -4 15
4 8 4 15 1 15 -2 0 -16 -27 -31 -60z"/>
<path d="M1385 1107 c-6 -7 -45 -59 -87 -117 -42 -58 -86 -116 -99 -130 -13
-14 -22 -26 -20 -28 1 -2 -9 -17 -23 -35 -14 -18 -46 -59 -71 -92 -26 -33 -61
-65 -78 -73 -18 -7 -47 -29 -65 -48 -31 -33 -84 -62 -107 -59 -26 3 -58 19
-81 40 -14 13 -47 32 -72 42 -26 9 -49 19 -52 22 -3 4 -14 7 -25 9 -11 2 -27
6 -35 9 -18 7 -84 6 -125 -1 -31 -6 -85 -52 -85 -73 0 -7 -5 -13 -11 -13 -6 0
-9 -6 -6 -12 2 -7 -2 -26 -8 -43 -7 -16 -11 -38 -10 -47 2 -10 0 -20 -4 -22
-8 -5 -7 -30 4 -106 15 -112 98 -149 341 -152 61 -1 116 2 122 6 7 4 12 4 12
0 0 -3 6 -1 14 5 8 7 24 14 36 16 40 8 85 46 130 111 25 35 48 64 53 64 4 0 7
7 7 15 0 8 3 15 8 15 14 1 86 111 90 137 3 23 50 98 87 139 25 28 45 55 45 59
0 3 17 28 38 55 75 99 137 183 147 199 6 9 13 18 16 21 11 10 18 40 9 40 -5 0
-25 14 -43 30 -39 34 -38 34 -52 17z"/>
<path d="M3555 1053 c-27 -20 -44 -38 -37 -41 6 -2 12 -8 12 -13 0 -11 69
-103 81 -107 5 -2 9 -9 9 -16 0 -6 9 -23 20 -36 111 -141 230 -312 230 -333 0
-13 9 -35 20 -48 31 -37 34 -42 60 -79 13 -19 27 -37 30 -40 4 -3 24 -29 44
-59 52 -74 81 -97 152 -121 54 -18 79 -20 200 -16 144 4 231 22 263 54 20 20
41 69 44 100 1 12 5 22 9 22 4 0 5 6 3 13 -3 6 -6 35 -9 62 -2 28 -7 59 -11
70 -23 66 -32 83 -53 107 -14 15 -36 31 -51 35 -48 15 -191 1 -191 -20 0 -6
-3 -7 -7 -4 -3 4 -12 2 -19 -3 -6 -6 -16 -10 -20 -8 -10 3 -59 -27 -91 -56
-13 -11 -23 -15 -23 -10 0 5 -4 4 -8 -3 -21 -33 -95 -12 -148 43 -24 24 -53
46 -66 49 -13 4 -33 18 -44 33 -10 14 -27 34 -36 44 -10 10 -15 18 -10 18 4 0
2 4 -4 8 -6 4 -34 39 -62 77 -29 39 -62 83 -75 99 -12 17 -21 33 -19 38 1 4
-2 8 -6 8 -5 0 -24 21 -43 48 -18 26 -39 54 -46 62 -6 8 -20 25 -30 37 l-18
23 -50 -37z"/>
</g>
</svg>
